<svg width="175" height="68" viewBox="0 0 175 68" fill="none" xmlns="http://www.w3.org/2000/svg">
<path d="M21.5638 64.5719C21.6266 63.135 21.8563 61.5134 21.8563 61.5134C21.8563 61.5134 21.5009 60.7148 21.2931 60.1552C21.0853 59.5957 21.2931 59.6962 21.356 59.4979C21.3901 59.0191 21.2663 58.5423 21.0033 58.1397C20.5686 57.5041 19.5487 55.3691 19.4859 55.3691C19.423 55.3691 19.8413 54.7932 19.8413 54.7932L18.9664 52.8647C18.9664 52.8647 14.0013 49.1705 11.9042 47.2419C9.80717 45.3133 5.92204 38.8214 5.5666 38.7643C5.19612 38.7416 4.82472 38.7905 4.47297 38.9083C4.47297 38.9083 4.24604 38.27 3.95349 37.3274C3.80859 36.8765 3.16607 35.3364 2.56184 33.837C1.97948 32.4 1.44087 30.9848 1.44087 30.5774C1.44087 29.7136 1.44086 28.5049 1.64866 27.6411C1.85645 26.7773 3.10319 25.5061 3.0157 25.5061C2.92821 25.5061 2.72589 25.0769 2.72589 25.0769C2.72589 25.0769 1.79083 25.6908 0.647978 24.7672C-0.494871 23.8437 0.358167 21.198 2.43607 16.2082C4.51398 11.2183 5.40529 10.2567 5.84275 9.90905C6.04248 9.69447 6.28198 9.52017 6.54814 9.39567L8.70807 9.3332L9.00062 8.98279L11.0348 8.90131C11.0348 8.90131 12.3417 8.83883 11.8249 5.55754C11.6457 5.13871 11.5003 4.70635 11.3902 4.26457C11.3902 4.05814 11.68 3.77021 11.7429 3.72131C12.4401 3.02866 12.4401 3.16447 12.5303 1.1544L13.4873 0.437305L14.0477 0.00541371H4.34173C3.19719 0.000351626 2.09735 0.446476 1.28343 1.24594C0.469506 2.0454 0.00795203 3.13292 0 4.27V63.7109C0.0057841 64.8509 0.465854 65.9422 1.27954 66.746C2.09322 67.5498 3.19427 68.0006 4.34173 67.9999H22.3867C22.3867 67.9999 21.5009 66.9134 21.5638 64.5719Z" fill="#003399"/>
<path d="M8.20506 64.3547H5.73344L4.23516 57.602V64.3547H2.61658V55.7332H5.50377L6.5646 61.3369L6.58374 55.7332H8.20506V64.3547Z" fill="white"/>
<path d="M13.7168 58.1344C13.7168 58.9493 13.4899 59.5523 12.1584 59.7642V59.8049C13.2521 59.8864 13.7168 60.2993 13.7168 61.6737V62.4316C13.7168 63.9093 12.8966 64.3629 11.2562 64.3629H8.82556V55.7305H11.2562C12.5439 55.7305 13.7168 56.1624 13.7168 57.4743V58.1344Z" fill="white"/>
<path d="M17.3229 64.3547L17.096 62.0133H16.098L15.7864 64.3547H13.9381L15.4938 55.7332H18.2361L19.4828 64.3547H17.3229Z" fill="white"/>
<path d="M11.1575 56.969H10.9087V59.3322H11.1575C11.4911 59.3322 11.636 59.1882 11.636 58.7889V57.5394C11.636 57.113 11.4829 56.969 11.1575 56.969Z" fill="#003399"/>
<path d="M11.1575 60.3997H10.9087V63.116H11.1575C11.4911 63.116 11.636 63.0535 11.636 62.7058V60.8044C11.636 60.4621 11.4829 60.3997 11.1575 60.3997Z" fill="#003399"/>
<path d="M16.2955 60.7856H16.9599L16.6264 57.2354L16.2955 60.7856Z" fill="#003399"/>
<path d="M23.7863 39.5738C22.5591 39.5776 21.3699 39.1514 20.4277 38.3702C19.4855 37.589 18.8507 36.5028 18.6349 35.3026C18.419 34.1024 18.636 32.865 19.2477 31.808C19.8593 30.7511 20.8265 29.9421 21.9791 29.5235C22.0798 29.3459 22.1912 29.1745 22.3126 29.0101C22.0471 28.4186 21.7344 27.8491 21.3776 27.307C20.7132 26.302 19.7781 23.879 19.4883 23.037C19.1985 22.1949 18.6982 18.46 18.5532 18.3975C18.4083 18.3351 18.3455 18.3975 17.7002 18.6855C17.055 18.9734 16.4753 20.0436 16.2457 20.5326C16.016 21.0215 14.8786 24.1045 14.813 24.1045C14.7474 24.1045 15.1028 24.4522 15.1028 24.4522C15.4425 24.6539 15.7565 24.8956 16.0379 25.172C16.2457 25.4599 17.99 31.7183 17.99 31.7183L17.5553 32.4381C17.5553 32.4381 17.6592 33.033 17.8287 33.8533C18.0146 34.7171 18.2634 35.8444 18.556 36.8412C19.1356 38.8296 19.7809 41.9723 19.7809 41.9723C19.7809 41.9723 20.653 43.4093 21.3803 44.906C22.1076 46.4026 22.9661 51.8868 22.9661 51.9493C22.9661 52.0118 24.1937 53.9621 24.3331 54.7417C24.4726 55.5213 23.9804 57.3059 23.9804 57.3059C24.0001 57.8558 24.0484 58.4043 24.1253 58.9492C24.1804 59.2959 24.3 59.6293 24.478 59.9325C24.6858 60.2205 24.6858 60.8561 24.6858 61.144C24.6858 61.4319 25.8505 65.1478 25.8505 65.558C25.8505 65.9682 25.0604 67.1878 24.7706 67.4241C24.7077 67.4676 24.2237 67.9674 24.1882 67.9999C25.3104 67.9634 26.3746 67.4961 27.1573 66.6963C27.9399 65.8965 28.38 64.8264 28.385 63.7109V36.9037C27.9293 37.717 27.2621 38.3939 26.4532 38.8636C25.6443 39.3333 24.7232 39.5786 23.7863 39.5738Z" fill="#FA002C"/>
<path d="M24.038 8.63941e-05H17.3477C17.4926 0.059845 18.9471 1.02685 19.2178 1.35824C19.4885 1.68963 19.4256 2.21931 19.2807 2.85492C19.1598 3.3348 19.0138 3.80808 18.8432 4.27283C18.8432 4.27283 18.6354 4.7835 18.6983 4.84598C18.769 4.95924 18.8181 5.08446 18.8432 5.21539C18.8432 5.21539 17.9902 6.77455 17.9082 6.84517C17.8261 6.9158 16.7462 8.85795 16.3907 8.9992C16.2376 9.04537 16.1173 9.45283 16.2458 9.55604C16.44 9.70273 17.3395 10.3546 17.3395 10.3546L17.7769 10.4171L18.8569 11.1342C18.9598 11.4143 19.1688 11.6433 19.4393 11.7725C20.289 12.3688 21.0446 13.0874 21.6812 13.9048C22.3265 14.7686 22.4714 16.6972 22.5343 18.1749C22.5971 19.6525 23.1986 22.8958 23.3244 23.1022C23.4502 23.3087 24.4864 25.8185 24.6914 26.446C24.8748 27.1261 25.0001 27.8203 25.066 28.5213L26.064 29.73C27.0395 30.1908 27.851 30.9354 28.3907 31.865V4.27011C28.3871 3.7058 28.2717 3.14771 28.051 2.62771C27.8303 2.10771 27.5087 1.63599 27.1045 1.23947C26.7003 0.842963 26.2215 0.529433 25.6953 0.316778C25.1692 0.104124 24.606 -0.003492 24.038 8.63941e-05Z" fill="#FA002C"/>
<path d="M85.4868 67.9999H65.99L54.1951 14.7495V67.9999H41.4187V0.019043H64.1882L72.5436 44.2078L72.7076 0.019043H85.4868V67.9999Z" fill="white"/>
<path d="M128.964 18.9571C128.964 25.4328 127.163 30.1238 116.677 31.7427V32.0687C125.197 32.7152 128.964 35.953 128.964 46.7965V52.7723C128.964 64.4253 122.402 67.9836 109.632 67.9836H90.4656V0.019043H109.637C119.797 0.019043 128.97 3.41713 128.97 13.7771L128.964 18.9571Z" fill="white"/>
<path d="M157.396 67.9999L155.594 49.5481H147.731L145.273 67.9999H130.692L142.982 0.019043H164.603L174.435 67.9999H157.396Z" fill="white"/>
<path d="M108.781 9.77612H106.815V28.3882H108.781C111.4 28.3882 112.549 27.2555 112.549 24.0177V14.1439C112.549 10.9115 111.4 9.77612 108.781 9.77612Z" fill="black"/>
<path d="M108.781 36.8223H106.815V58.349H108.781C111.4 58.349 112.549 57.8627 112.549 55.1111V40.0601C112.549 37.3058 111.4 36.8223 108.781 36.8223Z" fill="black"/>
<path d="M149.281 39.851H154.522L151.903 11.8486L149.281 39.851Z" fill="black"/>
</svg>
